<svg width="1500" height="1500" viewBox="0 0 1500 1500" fill="none" xmlns="http://www.w3.org/2000/svg">
<path d="M412.063 1057.72C412.063 1056.19 411.724 1054.91 411.046 1053.89C410.367 1052.86 409.492 1052.05 408.41 1051.43C407.335 1050.82 406.131 1050.38 404.793 1050.1C403.456 1049.83 402.138 1049.69 400.82 1049.69H390.122V1066.15H401.121C402.43 1066.15 403.748 1066 405.066 1065.69C406.384 1065.39 407.553 1064.89 408.588 1064.21C409.624 1063.53 410.461 1062.65 411.102 1061.58C411.742 1060.5 412.063 1059.22 412.063 1057.72ZM413.371 1057.72C413.371 1059.25 413.042 1060.61 412.393 1061.78C411.733 1062.96 410.839 1063.94 409.727 1064.72C408.616 1065.51 407.307 1066.1 405.811 1066.51C404.313 1066.92 402.731 1067.12 401.055 1067.12H390.122V1084.91H388.805V1048.73H400.282C401.798 1048.73 403.334 1048.87 404.887 1049.16C406.441 1049.45 407.844 1049.93 409.097 1050.62C410.359 1051.3 411.386 1052.22 412.177 1053.38C412.976 1054.53 413.371 1055.98 413.371 1057.72Z" fill="#2B2B2A"/>
<path d="M427.478 1084.91V1048.72H428.797V1083.89H449.832V1084.91H427.478Z" fill="#2B2B2A"/>
<path d="M475.605 1049.44L463.591 1073.56H487.264L475.605 1049.44ZM492.705 1084.91L487.678 1074.54H463.109L457.912 1084.91H456.472L474.824 1048.72H476.5L494.137 1084.91H492.705Z" fill="#2B2B2A"/>
<path d="M529.466 1076.22C529.466 1077.75 529.117 1079.13 528.422 1080.34C527.715 1081.54 526.792 1082.57 525.634 1083.4C524.485 1084.23 523.12 1084.87 521.538 1085.29C519.965 1085.72 518.327 1085.93 516.613 1085.93C513.976 1085.93 511.575 1085.53 509.41 1084.73C507.233 1083.93 505.426 1082.85 503.995 1081.48L505.012 1080.72C506.528 1082.12 508.288 1083.16 510.303 1083.86C512.319 1084.56 514.4 1084.91 516.547 1084.91C518.101 1084.91 519.579 1084.71 520.973 1084.32C522.367 1083.93 523.61 1083.37 524.683 1082.63C525.756 1081.9 526.604 1081 527.225 1079.93C527.837 1078.85 528.148 1077.62 528.148 1076.22C528.148 1074.82 527.809 1073.65 527.131 1072.69C526.454 1071.74 525.577 1070.93 524.503 1070.24C523.421 1069.56 522.196 1068.99 520.822 1068.53C519.447 1068.07 518.063 1067.65 516.669 1067.27C514.917 1066.8 513.309 1066.3 511.857 1065.77C510.399 1065.24 509.146 1064.59 508.092 1063.83C507.037 1063.06 506.217 1062.14 505.643 1061.06C505.06 1059.99 504.776 1058.69 504.776 1057.16C504.776 1055.66 505.125 1054.32 505.823 1053.15C506.518 1051.97 507.461 1050.99 508.657 1050.18C509.852 1049.38 511.236 1048.77 512.818 1048.34C514.39 1047.91 516.048 1047.7 517.809 1047.7C519.956 1047.7 522 1048.05 523.93 1048.75C525.869 1049.45 527.451 1050.45 528.685 1051.74L527.669 1052.51C526.556 1051.31 525.126 1050.39 523.392 1049.72C521.66 1049.06 519.777 1048.73 517.743 1048.73C516.311 1048.73 514.909 1048.9 513.535 1049.24C512.159 1049.58 510.906 1050.09 509.796 1050.8C508.675 1051.49 507.78 1052.37 507.103 1053.43C506.424 1054.48 506.086 1055.73 506.086 1057.16C506.086 1058.56 506.386 1059.74 506.989 1060.71C507.583 1061.68 508.383 1062.51 509.382 1063.19C510.369 1063.87 511.5 1064.43 512.752 1064.87C514.014 1065.32 515.295 1065.73 516.613 1066.1C518.403 1066.61 520.078 1067.13 521.632 1067.66C523.185 1068.19 524.551 1068.83 525.728 1069.58C526.906 1070.33 527.819 1071.23 528.478 1072.31C529.137 1073.38 529.466 1074.69 529.466 1076.22Z" fill="#2B2B2A"/>
<path d="M554.1 1049.75V1084.91H552.782V1049.75H538.374V1048.72H568.507V1049.75H554.1Z" fill="#2B2B2A"/>
<path d="M580.401 1048.73H581.719V1084.91H580.401V1048.73Z" fill="#2B2B2A"/>
<path d="M622.314 1076.22C622.314 1077.75 621.966 1079.13 621.269 1080.34C620.562 1081.54 619.64 1082.57 618.483 1083.4C617.333 1084.23 615.968 1084.87 614.386 1085.29C612.814 1085.72 611.174 1085.93 609.461 1085.93C606.824 1085.93 604.423 1085.53 602.258 1084.73C600.082 1083.93 598.273 1082.85 596.843 1081.48L597.86 1080.72C599.376 1082.12 601.137 1083.16 603.151 1083.86C605.166 1084.56 607.248 1084.91 609.395 1084.91C610.949 1084.91 612.427 1084.71 613.821 1084.32C615.215 1083.93 616.458 1083.37 617.53 1082.63C618.605 1081.9 619.452 1081 620.073 1079.93C620.684 1078.85 620.996 1077.62 620.996 1076.22C620.996 1074.82 620.656 1073.65 619.979 1072.69C619.302 1071.74 618.425 1070.93 617.352 1070.24C616.268 1069.56 615.045 1068.99 613.669 1068.53C612.295 1068.07 610.911 1067.65 609.517 1067.27C607.765 1066.8 606.156 1066.3 604.705 1065.77C603.246 1065.24 601.994 1064.59 600.939 1063.83C599.885 1063.06 599.066 1062.14 598.491 1061.06C597.907 1059.99 597.625 1058.69 597.625 1057.16C597.625 1055.66 597.973 1054.32 598.67 1053.15C599.367 1051.97 600.308 1050.99 601.505 1050.18C602.699 1049.38 604.084 1048.77 605.666 1048.34C607.238 1047.91 608.895 1047.7 610.657 1047.7C612.804 1047.7 614.847 1048.05 616.777 1048.75C618.718 1049.45 620.299 1050.45 621.533 1051.74L620.516 1052.51C619.404 1051.31 617.974 1050.39 616.24 1049.72C614.508 1049.06 612.625 1048.73 610.591 1048.73C609.159 1048.73 607.757 1048.9 606.382 1049.24C605.006 1049.58 603.754 1050.09 602.643 1050.8C601.523 1051.49 600.628 1052.37 599.951 1053.43C599.272 1054.48 598.934 1055.73 598.934 1057.16C598.934 1058.56 599.234 1059.74 599.837 1060.71C600.43 1061.68 601.231 1062.51 602.23 1063.19C603.218 1063.87 604.347 1064.43 605.601 1064.87C606.862 1065.32 608.142 1065.73 609.461 1066.1C611.25 1066.61 612.926 1067.13 614.48 1067.66C616.034 1068.19 617.399 1068.83 618.575 1069.58C619.753 1070.33 620.666 1071.23 621.325 1072.31C621.985 1073.38 622.314 1074.69 622.314 1076.22Z" fill="#2B2B2A"/>
<path d="M665.329 1084.57C662.598 1085.48 659.82 1085.93 656.986 1085.93C653.794 1085.93 650.884 1085.45 648.257 1084.5C645.63 1083.55 643.359 1082.22 641.439 1080.54C639.528 1078.85 638.04 1076.83 636.985 1074.48C635.931 1072.13 635.403 1069.58 635.403 1066.82C635.403 1064.05 635.931 1061.5 636.985 1059.15C638.04 1056.8 639.528 1054.78 641.439 1053.09C643.359 1051.41 645.638 1050.09 648.285 1049.13C650.941 1048.18 653.841 1047.7 656.986 1047.7C659.612 1047.7 662.175 1048.08 664.67 1048.85C667.156 1049.62 669.284 1050.79 671.035 1052.35L670.197 1053.17C669.36 1052.42 668.417 1051.77 667.362 1051.21C666.299 1050.64 665.187 1050.18 664.011 1049.8C662.834 1049.42 661.647 1049.15 660.451 1048.98C659.255 1048.81 658.098 1048.72 656.986 1048.72C653.954 1048.72 651.195 1049.2 648.708 1050.13C646.213 1051.07 644.086 1052.35 642.305 1053.99C640.535 1055.62 639.16 1057.54 638.182 1059.74C637.211 1061.94 636.722 1064.29 636.722 1066.82C636.722 1069.34 637.201 1071.7 638.154 1073.9C639.114 1076.09 640.479 1078.01 642.249 1079.64C644.02 1081.28 646.157 1082.57 648.644 1083.5C651.139 1084.44 653.916 1084.91 656.986 1084.91C659.612 1084.91 662.221 1084.47 664.792 1083.6C667.362 1082.74 669.482 1081.43 671.157 1079.69L672.108 1080.46C670.32 1082.3 668.059 1083.67 665.329 1084.57Z" fill="#2B2B2A"/>
<path d="M714.981 1084.91V1066.71H686.524V1084.91H685.207V1048.72H686.524V1065.69H714.981V1048.72H716.291V1084.91H714.981Z" fill="#2B2B2A"/>
<path d="M733.447 1084.91V1048.72H758.136V1049.75H734.765V1065.64H756.761V1066.66H734.765V1083.89H759.098V1084.91H733.447Z" fill="#2B2B2A"/>
<path d="M796.885 1057.67C796.885 1056.1 796.526 1054.8 795.811 1053.76C795.096 1052.72 794.145 1051.9 792.967 1051.31C791.79 1050.71 790.434 1050.29 788.91 1050.05C787.374 1049.82 785.802 1049.69 784.21 1049.69H774.53V1065.69H784.871C788.778 1065.69 791.752 1065 793.806 1063.6C795.859 1062.2 796.885 1060.22 796.885 1057.67ZM797.243 1084.91L784.455 1066.66H774.53V1084.91H773.212V1048.73H784.927C786.479 1048.73 788.061 1048.85 789.653 1049.08C791.245 1049.32 792.675 1049.77 793.929 1050.44C795.18 1051.1 796.208 1052.01 797.007 1053.17C797.798 1054.33 798.202 1055.83 798.202 1057.67C798.202 1059.38 797.817 1060.79 797.063 1061.91C796.31 1063.03 795.331 1063.95 794.135 1064.64C792.94 1065.35 791.611 1065.84 790.162 1066.15C788.702 1066.46 787.28 1066.61 785.886 1066.61L798.739 1084.91H797.243Z" fill="#2B2B2A"/>
<path d="M860.523 1084.57C857.792 1085.48 855.014 1085.93 852.18 1085.93C848.986 1085.93 846.077 1085.45 843.451 1084.5C840.822 1083.55 838.553 1082.22 836.633 1080.54C834.722 1078.85 833.234 1076.83 832.179 1074.48C831.124 1072.13 830.597 1069.58 830.597 1066.82C830.597 1064.05 831.124 1061.5 832.179 1059.15C833.234 1056.8 834.722 1054.78 836.633 1053.09C838.553 1051.41 840.832 1050.09 843.479 1049.13C846.134 1048.18 849.035 1047.7 852.18 1047.7C854.806 1047.7 857.367 1048.08 859.862 1048.85C862.35 1049.62 864.476 1050.79 866.228 1052.35L865.391 1053.17C864.552 1052.42 863.611 1051.77 862.556 1051.21C861.492 1050.64 860.381 1050.18 859.204 1049.8C858.028 1049.42 856.84 1049.15 855.644 1048.98C854.449 1048.81 853.29 1048.72 852.18 1048.72C849.147 1048.72 846.389 1049.2 843.902 1050.13C841.407 1051.07 839.28 1052.35 837.499 1053.99C835.729 1055.62 834.354 1057.54 833.375 1059.74C832.405 1061.94 831.915 1064.29 831.915 1066.82C831.915 1069.34 832.395 1071.7 833.346 1073.9C834.308 1076.09 835.671 1078.01 837.443 1079.64C839.214 1081.28 841.35 1082.57 843.836 1083.5C846.331 1084.44 849.11 1084.91 852.18 1084.91C854.806 1084.91 857.415 1084.47 859.986 1083.6C862.556 1082.74 864.675 1081.43 866.351 1079.69L867.302 1080.46C865.514 1082.3 863.253 1083.67 860.523 1084.57Z" fill="#2B2B2A"/>
<path d="M910.176 1084.91V1066.71H881.719V1084.91H880.402V1048.72H881.719V1065.69H910.176V1048.72H911.484V1084.91H910.176Z" fill="#2B2B2A"/>
<path d="M928.641 1048.73H929.959V1084.91H928.641V1048.73Z" fill="#2B2B2A"/>
<path d="M970.789 1057.67C970.789 1056.1 970.431 1054.8 969.714 1053.76C969.001 1052.72 968.048 1051.9 966.872 1051.31C965.694 1050.71 964.337 1050.29 962.813 1050.05C961.279 1049.82 959.705 1049.69 958.115 1049.69H948.435V1065.69H958.774C962.681 1065.69 965.657 1065 967.71 1063.6C969.762 1062.2 970.789 1060.22 970.789 1057.67ZM971.146 1084.91L958.359 1066.66H948.435V1084.91H947.115V1048.73H958.83C960.384 1048.73 961.966 1048.85 963.558 1049.08C965.148 1049.32 966.58 1049.77 967.832 1050.44C969.083 1051.1 970.111 1052.01 970.911 1053.17C971.702 1054.33 972.106 1055.83 972.106 1057.67C972.106 1059.38 971.721 1060.79 970.967 1061.91C970.214 1063.03 969.235 1063.95 968.038 1064.64C966.844 1065.35 965.515 1065.84 964.065 1066.15C962.605 1066.46 961.183 1066.61 959.789 1066.61L972.643 1084.91H971.146Z" fill="#2B2B2A"/>
<path d="M1017.97 1076.96C1017.41 1078.75 1016.49 1080.31 1015.21 1081.63C1013.93 1082.97 1012.28 1084.01 1010.22 1084.78C1008.17 1085.55 1005.65 1085.93 1002.66 1085.93C999.669 1085.93 997.144 1085.55 995.101 1084.78C993.039 1084.01 991.382 1082.97 990.101 1081.63C988.831 1080.31 987.916 1078.75 987.352 1076.96C986.796 1075.17 986.514 1073.25 986.514 1071.21V1048.72H987.832V1071.01C987.832 1072.44 988.002 1073.96 988.341 1075.58C988.679 1077.2 989.376 1078.7 990.431 1080.08C991.485 1081.46 992.983 1082.61 994.913 1083.53C996.853 1084.45 999.433 1084.91 1002.66 1084.91C1005.81 1084.91 1008.35 1084.47 1010.28 1083.58C1012.21 1082.7 1013.72 1081.56 1014.79 1080.18C1015.87 1078.8 1016.59 1077.3 1016.95 1075.68C1017.3 1074.07 1017.48 1072.51 1017.48 1071.01V1048.72H1018.8V1071.21C1018.8 1073.25 1018.52 1075.17 1017.97 1076.96Z" fill="#2B2B2A"/>
<path d="M1059.03 1057.67C1059.03 1056.1 1058.67 1054.8 1057.96 1053.76C1057.24 1052.72 1056.29 1051.9 1055.11 1051.31C1053.94 1050.71 1052.58 1050.29 1051.05 1050.05C1049.52 1049.82 1047.95 1049.69 1046.36 1049.69H1036.68V1065.69H1047.02C1050.92 1065.69 1053.9 1065 1055.95 1063.6C1058 1062.2 1059.03 1060.22 1059.03 1057.67ZM1059.39 1084.91L1046.6 1066.66H1036.68V1084.91H1035.36V1048.73H1047.07C1048.63 1048.73 1050.21 1048.85 1051.8 1049.08C1053.39 1049.32 1054.82 1049.77 1056.07 1050.44C1057.33 1051.1 1058.35 1052.01 1059.15 1053.17C1059.94 1054.33 1060.35 1055.83 1060.35 1057.67C1060.35 1059.38 1059.96 1060.79 1059.21 1061.91C1058.46 1063.03 1057.48 1063.95 1056.28 1064.64C1055.08 1065.35 1053.76 1065.84 1052.31 1066.15C1050.85 1066.46 1049.42 1066.61 1048.03 1066.61L1060.89 1084.91H1059.39Z" fill="#2B2B2A"/>
<path d="M1104.51 1084.96C1101.96 1085.6 1099.01 1085.93 1095.65 1085.93C1092.3 1085.93 1089.24 1085.44 1086.49 1084.45C1083.73 1083.46 1081.38 1082.11 1079.43 1080.38C1077.47 1078.66 1075.96 1076.64 1074.91 1074.3C1073.84 1071.97 1073.32 1069.44 1073.32 1066.71C1073.32 1063.99 1073.85 1061.46 1074.94 1059.13C1076.01 1056.79 1077.52 1054.78 1079.45 1053.09C1081.38 1051.41 1083.7 1050.09 1086.42 1049.13C1089.12 1048.18 1092.11 1047.7 1095.38 1047.7C1098.25 1047.7 1100.88 1048.08 1103.27 1048.83C1105.66 1049.58 1107.77 1050.6 1109.61 1051.89L1108.65 1052.71C1107.86 1052.06 1106.92 1051.49 1105.87 1051C1104.82 1050.5 1103.69 1050.09 1102.53 1049.75C1101.35 1049.41 1100.15 1049.15 1098.9 1048.98C1097.67 1048.81 1096.47 1048.73 1095.31 1048.73C1092.21 1048.73 1089.38 1049.2 1086.83 1050.13C1084.28 1051.07 1082.09 1052.35 1080.29 1053.99C1078.47 1055.62 1077.07 1057.53 1076.09 1059.71C1075.13 1061.89 1074.63 1064.23 1074.63 1066.71C1074.63 1069.2 1075.12 1071.55 1076.07 1073.77C1077.03 1075.98 1078.41 1077.92 1080.22 1079.57C1082.04 1081.22 1084.25 1082.53 1086.86 1083.48C1089.47 1084.43 1092.43 1084.91 1095.74 1084.91C1098.61 1084.91 1101.15 1084.65 1103.39 1084.14C1105.62 1083.63 1107.67 1082.98 1109.54 1082.2V1067.99H1098.54V1067.02H1110.86V1082.81C1109.18 1083.6 1107.07 1084.31 1104.51 1084.96Z" fill="#2B2B2A"/>
<path d="M297.537 414.958C299.288 414.88 301.037 414.729 302.787 414.729C332.858 414.714 362.93 414.772 392.993 414.657C396.772 414.636 399.506 415.475 402.221 417.977C453.513 465.227 506.186 511.257 557.756 558.254C604.518 600.872 651.959 642.871 698.896 685.331C708.298 693.842 717.598 702.434 726.969 710.975C728.343 712.221 729.446 713.391 729.437 715.391C729.366 741.113 729.39 766.836 729.39 792.508C727.593 793.282 727.081 791.884 726.346 791.217C720.051 785.495 713.891 779.651 707.555 773.964C658.838 730.192 609.846 686.657 561.399 642.643C509.51 595.487 456.844 549.011 405.017 501.791C377.878 477.058 350.282 452.742 323.239 427.924C317.088 422.279 309.729 419.096 301.581 416.894C300.246 416.529 298.903 416.184 297.57 415.834C297.211 415.647 297.082 415.454 297.194 415.26C297.306 415.058 297.418 414.958 297.537 414.958Z" fill="#D7AF5C"/>
<path d="M1069.7 792.774H867.365C868.396 790.83 869.986 791.433 871.182 791.318C891.275 789.368 908.061 781.759 920.773 767.54C930.241 756.941 936.025 744.858 936.049 731.119C936.168 649.665 936.137 568.203 936.151 486.747C936.151 475.697 935.761 464.632 936.241 453.596C936.911 438.179 923.721 422.089 905.353 418.001C902.604 417.39 899.881 416.902 897.036 417.026C895.871 417.082 894.966 416.759 894.959 415.49C894.951 414.149 896.021 414.055 897.101 414.02C898.331 413.985 899.562 414.006 900.792 414.006H1036.92C1037.98 414.006 1039.03 413.992 1040.09 414.013C1041.35 414.034 1042.65 414.041 1042.47 415.72C1042.31 417.047 1041.22 417.09 1040.16 417.026C1036.03 416.78 1032.12 417.777 1028.36 419.069C1013.82 424.082 1004.94 433.54 1001.59 447.172C1001.26 448.533 1001.37 449.996 1001.37 451.41C1001.36 544.237 1001.31 637.058 1001.41 729.885C1001.42 744.952 1007.51 758.211 1018.41 769.562C1030.59 782.254 1045.97 789.741 1064.7 791.362C1065.39 791.426 1066.1 791.571 1066.73 791.821C1067.64 792.18 1068.85 791.62 1069.7 792.774Z" fill="#D7AF5C"/>
<path d="M381.038 793.085C353.099 793.085 325.161 793.122 297.223 793C295.576 792.993 292.189 794.556 292.333 791.493C292.429 789.278 295.624 790.533 297.158 790.512C314.359 790.21 330.002 785.672 343.824 776.606C365.866 762.157 377.299 742.43 378.833 718.013C378.905 716.823 378.202 715.403 379.551 714.5C381.221 713.374 383.458 714.744 383.562 716.995C384.01 726.833 385.894 736.406 390.48 745.399C402.825 769.579 423.58 784.258 452.678 789.45C457.871 790.381 463.111 790.397 468.36 790.496C469.199 790.519 470.182 790.268 470.374 791.385C470.597 792.648 469.743 793.043 468.545 793.064C467.139 793.094 465.732 793.085 464.327 793.085H381.038Z" fill="#D7AF5C"/>
<path d="M729.387 414.012H812.707C814.114 414.012 815.52 413.977 816.924 414.056C817.803 414.099 818.763 414.321 818.618 415.382C818.484 416.421 817.533 416.343 816.645 416.35C809.455 416.429 802.298 416.866 795.331 418.63C761.655 427.128 741.004 446.705 733.342 477.338C732.335 481.355 732.271 485.449 731.832 489.515C731.68 490.963 732.407 492.771 729.506 492.85C726.614 492.921 727.133 491.207 727.07 489.694C726.359 472.987 720.719 457.835 708.951 444.768C693.075 427.157 672.478 417.67 647.193 416.565C645.283 416.486 643.398 415.956 641.449 416.372C640.874 416.494 640.522 415.992 640.41 415.555C640.243 414.873 640.57 414.22 641.328 414.134C642.72 413.991 644.133 414.019 645.539 414.019C673.485 414.012 701.44 414.012 729.387 414.012Z" fill="#D7AF5C"/>
<path d="M1162.37 414.011C1175.72 414.011 1189.09 414.004 1202.45 414.018C1207.11 414.018 1207.14 414.048 1207.15 417.977C1207.15 441.641 1207.17 465.313 1207.1 488.984C1207.1 490.211 1208.08 492.404 1206.04 492.533C1203.78 492.683 1204.64 490.453 1204.6 489.235C1203.37 455.782 1178.43 428.661 1145.92 419.763C1137.47 417.454 1128.83 416.457 1120.04 416.314C1119 416.292 1117.72 416.621 1117.78 415.202C1117.83 413.875 1119.19 414.069 1120.17 414.034C1121.76 413.976 1123.34 414.011 1124.92 414.011H1162.37Z" fill="#D7AF5C"/>
<path d="M640.995 917.616C641.268 917.603 641.541 917.58 641.813 917.58C646.507 917.578 651.2 917.587 655.891 917.568C656.481 917.565 656.907 917.697 657.331 918.087C665.335 925.46 673.555 932.644 681.603 939.977C688.9 946.628 696.303 953.182 703.628 959.808C705.096 961.136 706.547 962.477 708.008 963.811C708.224 964.005 708.396 964.187 708.394 964.499C708.383 968.514 708.387 972.527 708.387 976.534C708.106 976.654 708.026 976.437 707.912 976.332C706.929 975.44 705.968 974.528 704.979 973.64C697.377 966.81 689.731 960.015 682.171 953.147C674.074 945.787 665.855 938.535 657.767 931.167C653.531 927.307 649.225 923.512 645.005 919.639C644.046 918.758 642.897 918.261 641.625 917.918C641.417 917.861 641.208 917.806 641 917.753C640.944 917.723 640.924 917.693 640.941 917.663C640.959 917.632 640.976 917.616 640.995 917.616Z" fill="#D7AF5C"/>
<path d="M654.024 976.624C649.665 976.624 645.305 976.63 640.945 976.611C640.688 976.609 640.16 976.853 640.182 976.376C640.197 976.029 640.696 976.226 640.935 976.222C643.619 976.175 646.06 975.467 648.217 974.053C651.657 971.798 653.441 968.719 653.681 964.909C653.692 964.723 653.582 964.501 653.792 964.36C654.053 964.185 654.402 964.399 654.419 964.749C654.489 966.285 654.782 967.779 655.498 969.182C657.424 972.955 660.663 975.246 665.205 976.057C666.014 976.202 666.832 976.204 667.652 976.22C667.782 976.224 667.936 976.184 667.966 976.359C668.001 976.556 667.867 976.617 667.68 976.621C667.461 976.626 667.242 976.624 667.021 976.624H654.024Z" fill="#D7AF5C"/>
<path d="M708.386 917.469H721.388C721.607 917.469 721.827 917.463 722.046 917.475C722.184 917.482 722.333 917.516 722.31 917.683C722.289 917.844 722.142 917.832 722.002 917.833C720.881 917.846 719.763 917.914 718.676 918.19C713.421 919.515 710.199 922.57 709.003 927.351C708.846 927.977 708.836 928.616 708.767 929.251C708.743 929.477 708.857 929.759 708.405 929.772C707.952 929.782 708.034 929.515 708.024 929.278C707.913 926.671 707.033 924.307 705.196 922.268C702.719 919.52 699.505 918.039 695.559 917.867C695.261 917.855 694.966 917.772 694.663 917.836C694.573 917.856 694.518 917.777 694.5 917.709C694.474 917.603 694.525 917.5 694.644 917.488C694.861 917.466 695.082 917.47 695.301 917.47C699.662 917.469 704.025 917.469 708.386 917.469Z" fill="#D7AF5C"/>
<path d="M1094.3 976.479H1062.79C1062.95 976.176 1063.2 976.27 1063.38 976.252C1066.51 975.949 1069.13 974.764 1071.11 972.549C1072.58 970.899 1073.48 969.017 1073.49 966.878C1073.5 954.193 1073.5 941.508 1073.5 928.823C1073.5 927.102 1073.44 925.378 1073.51 923.66C1073.62 921.26 1071.56 918.754 1068.71 918.117C1068.28 918.023 1067.85 917.947 1067.41 917.965C1067.23 917.974 1067.09 917.924 1067.09 917.726C1067.09 917.518 1067.25 917.503 1067.42 917.497C1067.61 917.492 1067.8 917.495 1067.99 917.495H1089.19C1089.36 917.495 1089.52 917.493 1089.69 917.497C1089.88 917.499 1090.09 917.5 1090.06 917.762C1090.03 917.969 1089.86 917.975 1089.7 917.965C1089.05 917.927 1088.45 918.082 1087.86 918.283C1085.6 919.064 1084.21 920.537 1083.69 922.66C1083.64 922.872 1083.66 923.1 1083.66 923.319C1083.66 937.776 1083.65 952.23 1083.66 966.686C1083.67 969.032 1084.61 971.096 1086.31 972.865C1088.21 974.841 1090.6 976.007 1093.52 976.26C1093.63 976.269 1093.74 976.292 1093.84 976.331C1093.98 976.386 1094.17 976.299 1094.3 976.479Z" fill="#D7AF5C"/>
<path d="M1108.73 917.496C1110.81 917.496 1112.89 917.495 1114.97 917.498C1115.7 917.498 1115.7 917.502 1115.7 918.113C1115.7 921.8 1115.71 925.485 1115.7 929.172C1115.7 929.362 1115.85 929.704 1115.53 929.725C1115.18 929.747 1115.31 929.4 1115.31 929.21C1115.11 924.001 1111.23 919.778 1106.17 918.392C1104.85 918.032 1103.51 917.877 1102.14 917.855C1101.98 917.852 1101.78 917.904 1101.79 917.681C1101.79 917.475 1102.01 917.505 1102.16 917.5C1102.4 917.49 1102.65 917.496 1102.9 917.496H1108.73Z" fill="#D7AF5C"/>
<path d="M1048.36 917.496C1046.28 917.496 1044.2 917.495 1042.12 917.498C1041.39 917.498 1041.39 917.501 1041.39 918.113C1041.38 921.799 1041.38 925.485 1041.39 929.172C1041.39 929.362 1041.24 929.704 1041.56 929.724C1041.91 929.747 1041.78 929.4 1041.78 929.21C1041.97 924.001 1045.86 919.778 1050.92 918.391C1052.24 918.032 1053.58 917.877 1054.95 917.855C1055.11 917.852 1055.31 917.903 1055.3 917.681C1055.29 917.475 1055.08 917.505 1054.93 917.5C1054.68 917.49 1054.44 917.496 1054.19 917.496H1048.36Z" fill="#D7AF5C"/>
<path d="M1386.14 975.593H1396.57V918.663H1386.14V917.498H1406.24L1437.98 962.858H1438.17V918.663H1427.74V917.498H1450V918.663H1439.58V977.923H1437.7L1398.16 922.076H1397.97V975.593H1408.4V976.758H1386.14V975.593Z" fill="#D7AF5C"/>
<path d="M1333.72 927.07L1323.39 951.29H1344.05L1333.72 927.07ZM1303.2 975.593H1311.46L1336.82 916H1339.07L1364.62 975.593H1372.97V976.758H1344.05V975.593H1354.47L1344.61 952.455H1322.83L1312.96 975.593H1323.39V976.758H1303.2V975.593Z" fill="#D7AF5C"/>
<path d="M1212.75 975.593H1223.18V918.663H1212.75V917.498H1233.88L1251.26 962.276H1251.44L1268.82 917.498H1289.57V918.663H1279.15V975.593H1289.57V976.758H1259.33V975.593H1269.76V919.163H1269.57L1247.12 976.841L1224.77 919.745H1224.59V975.593H1235.01V976.758H1212.75V975.593Z" fill="#D7AF5C"/>
<path d="M1138.09 947.045C1138.09 952.039 1138.47 956.394 1139.22 960.112C1139.97 963.83 1141.22 966.937 1142.98 969.434C1144.73 971.931 1146.98 973.789 1149.74 975.01C1152.49 976.231 1155.9 976.841 1159.97 976.841C1163.98 976.841 1167.36 976.231 1170.12 975.01C1172.93 973.789 1175.22 971.931 1176.97 969.434C1178.72 966.937 1179.98 963.83 1180.73 960.112C1181.48 956.394 1181.85 952.039 1181.85 947.045C1181.85 943.216 1181.57 939.526 1181.01 935.975C1180.45 932.369 1179.35 929.178 1177.72 926.404C1176.16 923.574 1173.93 921.327 1171.05 919.662C1168.24 917.998 1164.54 917.165 1159.97 917.165C1155.4 917.165 1151.68 917.998 1148.8 919.662C1145.98 921.327 1143.76 923.574 1142.13 926.404C1140.57 929.178 1139.5 932.369 1138.94 935.975C1138.37 939.526 1138.09 943.216 1138.09 947.045ZM1127.29 947.045C1127.29 942.606 1128.26 938.5 1130.2 934.727C1132.21 930.954 1134.74 927.68 1137.81 924.906C1140.94 922.131 1144.45 919.967 1148.33 918.414C1152.21 916.805 1156.09 916 1159.97 916C1164.11 916 1168.11 916.805 1171.99 918.414C1175.94 919.967 1179.44 922.131 1182.51 924.906C1185.58 927.68 1188.02 930.954 1189.84 934.727C1191.71 938.5 1192.65 942.606 1192.65 947.045C1192.65 950.929 1191.81 954.73 1190.12 958.447C1188.43 962.165 1186.11 965.466 1183.17 968.352C1180.23 971.237 1176.75 973.567 1172.74 975.343C1168.8 977.119 1164.54 978.006 1159.97 978.006C1155.28 978.006 1150.93 977.146 1146.92 975.426C1142.91 973.706 1139.44 971.431 1136.5 968.601C1133.62 965.716 1131.36 962.415 1129.73 958.697C1128.11 954.924 1127.29 951.04 1127.29 947.045Z" fill="#D7AF5C"/>
<path d="M944.65 975.593H955.074V918.663H944.65V917.498H974.889V918.663H964.465V975.593H981.181C986.691 975.593 991.011 974.067 994.141 971.015C997.271 967.963 999.556 963.802 1001 958.53H1002.03V976.758H944.65V975.593Z" fill="#D7AF5C"/>
<path d="M891.383 927.07L881.053 951.29H901.713L891.383 927.07ZM860.862 975.593H869.126L894.482 916H896.736L922.279 975.593H930.637V976.758H901.713V975.593H912.137L902.277 952.455H880.489L870.629 975.593H881.053V976.758H860.862V975.593Z" fill="#D7AF5C"/>
<path d="M800.878 975.593C801.943 975.704 803.164 975.787 804.541 975.842C805.981 975.898 807.546 975.925 809.236 975.925C811.365 975.925 813.462 975.842 815.528 975.676C817.657 975.454 819.66 975.038 821.539 974.427C823.479 973.762 825.264 972.846 826.891 971.681C828.582 970.46 830.084 968.879 831.399 966.937C833.403 963.94 834.78 960.889 835.531 957.781C836.345 954.619 836.752 951.178 836.752 947.461C836.752 943.077 836.282 939.11 835.343 935.559C834.404 931.952 832.839 928.901 830.648 926.404C828.519 923.851 825.671 921.881 822.102 920.494C818.534 919.107 814.12 918.414 808.861 918.414C807.296 918.414 805.856 918.441 804.541 918.497C803.289 918.552 802.068 918.608 800.878 918.663V975.593ZM781.063 975.593H791.487V918.663H781.063V917.498H798.531C799.407 917.498 800.284 917.498 801.16 917.498C802.037 917.442 802.913 917.387 803.79 917.332C804.666 917.332 805.543 917.332 806.419 917.332C807.296 917.276 808.172 917.248 809.049 917.248C810.927 917.248 812.586 917.276 814.026 917.332C815.528 917.387 816.906 917.498 818.158 917.664C819.473 917.775 820.693 917.97 821.82 918.247C823.01 918.469 824.262 918.774 825.577 919.163C829.396 920.272 832.683 921.77 835.437 923.657C838.255 925.488 840.54 927.624 842.293 930.066C844.108 932.507 845.423 935.17 846.237 938.056C847.113 940.941 847.552 943.965 847.552 947.128C847.552 950.79 847.051 954.091 846.049 957.032C845.047 959.918 843.67 962.498 841.917 964.773C840.164 966.992 838.098 968.934 835.719 970.599C833.403 972.208 830.898 973.512 828.206 974.511C826.704 975.121 825.264 975.593 823.886 975.925C822.572 976.258 821.194 976.508 819.754 976.675C818.377 976.841 816.843 976.952 815.153 977.007C813.462 977.063 811.522 977.091 809.33 977.091C808.391 977.091 807.39 977.063 806.325 977.007C805.261 977.007 804.197 976.98 803.132 976.924C802.068 976.869 801.004 976.813 799.939 976.758C798.938 976.758 797.967 976.758 797.028 976.758H781.063V975.593Z" fill="#D7AF5C"/>
<path d="M733.668 975.593H744.092V918.663H733.668V917.498H763.907V918.663H753.483V975.593H763.907V976.758H733.668V975.593Z" fill="#D7AF5C"/>
<path d="M580.417 973.494C580.417 972.591 580.764 971.832 581.458 971.216C582.199 970.559 583.079 970.231 584.098 970.231C585.117 970.231 585.973 970.559 586.668 971.216C587.409 971.832 587.779 972.591 587.779 973.494C587.779 974.397 587.409 975.176 586.668 975.833C585.973 976.449 585.117 976.757 584.098 976.757C583.079 976.757 582.199 976.449 581.458 975.833C580.764 975.176 580.417 974.397 580.417 973.494Z" fill="#D7AF5C"/>
<path d="M525.44 944.381H534.079C535.832 944.381 537.429 944.187 538.869 943.799C540.309 943.41 541.53 942.744 542.531 941.801C543.596 940.802 544.41 939.471 544.973 937.806C545.536 936.142 545.818 934.033 545.818 931.481C545.818 928.595 545.38 926.293 544.503 924.573C543.69 922.797 542.594 921.465 541.217 920.577C539.902 919.69 538.399 919.107 536.709 918.83C535.081 918.552 533.453 918.414 531.826 918.414C530.699 918.414 529.54 918.441 528.351 918.497C527.224 918.497 526.254 918.552 525.44 918.663V944.381ZM505.625 975.593H516.049V918.663H505.625V917.498H523.468C524.219 917.498 524.97 917.498 525.722 917.498C526.473 917.442 527.224 917.387 527.975 917.332C528.727 917.332 529.478 917.332 530.229 917.332C530.98 917.276 531.732 917.248 532.483 917.248C536.177 917.248 539.432 917.442 542.25 917.831C545.067 918.164 547.696 919.19 550.138 920.91C552.329 922.409 553.863 924.101 554.74 925.987C555.679 927.874 556.148 929.65 556.148 931.314C556.148 932.146 555.96 933.228 555.585 934.56C555.272 935.836 554.52 937.168 553.331 938.555C552.204 939.887 550.545 941.135 548.354 942.301C546.163 943.41 543.251 944.159 539.62 944.548V944.714C540.622 944.825 541.968 945.047 543.658 945.38C545.411 945.657 547.164 946.157 548.917 946.878C550.733 947.6 552.392 948.571 553.894 949.791C555.397 950.956 556.461 952.482 557.087 954.369C557.463 955.479 557.713 956.755 557.839 958.197C558.026 959.585 558.152 961.027 558.214 962.525C558.339 964.024 558.433 965.466 558.496 966.853C558.621 968.241 558.809 969.406 559.059 970.349C559.435 971.792 560.03 973.096 560.844 974.261C561.658 975.426 562.972 976.009 564.788 976.009C565.602 976.009 566.447 975.87 567.324 975.593C568.2 975.315 568.983 974.871 569.671 974.261L570.516 975.176C570.203 975.398 569.828 975.648 569.39 975.925C569.014 976.147 568.513 976.369 567.887 976.591C567.261 976.813 566.478 976.98 565.539 977.091C564.663 977.257 563.567 977.34 562.252 977.34C559.748 977.34 557.651 977.063 555.96 976.508C554.333 975.953 553.018 975.149 552.016 974.094C551.015 972.985 550.263 971.653 549.762 970.099C549.324 968.49 549.011 966.631 548.823 964.523L548.166 956.949C547.916 954.175 547.289 952.011 546.288 950.457C545.286 948.903 544.097 947.766 542.719 947.045C541.404 946.323 540.027 945.907 538.587 945.796C537.147 945.63 535.895 945.547 534.831 945.547H525.44V975.593H535.864V976.758H505.625V975.593Z" fill="#D7AF5C"/>
<path d="M437.593 975.593C438.657 975.704 439.878 975.787 441.255 975.842C442.695 975.898 444.26 975.925 445.951 975.925C448.079 975.925 450.176 975.842 452.242 975.676C454.371 975.454 456.375 975.038 458.253 974.427C460.194 973.762 461.978 972.846 463.606 971.681C465.296 970.46 466.799 968.879 468.113 966.937C470.117 963.94 471.494 960.889 472.245 957.781C473.059 954.619 473.466 951.178 473.466 947.461C473.466 943.077 472.997 939.11 472.057 935.559C471.118 931.952 469.553 928.901 467.362 926.404C465.233 923.851 462.385 921.881 458.816 920.494C455.248 919.107 450.834 918.414 445.575 918.414C444.01 918.414 442.57 918.441 441.255 918.497C440.003 918.552 438.782 918.608 437.593 918.663V975.593ZM417.778 975.593H428.202V918.663H417.778V917.498H435.245C436.121 917.498 436.998 917.498 437.874 917.498C438.751 917.442 439.627 917.387 440.504 917.332C441.38 917.332 442.257 917.332 443.133 917.332C444.01 917.276 444.886 917.248 445.763 917.248C447.641 917.248 449.3 917.276 450.74 917.332C452.242 917.387 453.62 917.498 454.872 917.664C456.187 917.775 457.408 917.97 458.534 918.247C459.724 918.469 460.976 918.774 462.291 919.163C466.11 920.272 469.397 921.77 472.151 923.657C474.969 925.488 477.254 927.624 479.007 930.066C480.822 932.507 482.137 935.17 482.951 938.056C483.827 940.941 484.266 943.965 484.266 947.128C484.266 950.79 483.765 954.091 482.763 957.032C481.761 959.918 480.384 962.498 478.631 964.773C476.878 966.992 474.812 968.934 472.433 970.599C470.117 972.208 467.612 973.512 464.92 974.511C463.418 975.121 461.978 975.593 460.6 975.925C459.286 976.258 457.908 976.508 456.468 976.675C455.091 976.841 453.557 976.952 451.867 977.007C450.176 977.063 448.236 977.091 446.044 977.091C445.105 977.091 444.104 977.063 443.039 977.007C441.975 977.007 440.911 976.98 439.846 976.924C438.782 976.869 437.718 976.813 436.653 976.758C435.652 976.758 434.681 976.758 433.742 976.758H417.778V975.593Z" fill="#D7AF5C"/>
<path d="M342.103 973.494C342.103 972.591 342.45 971.832 343.144 971.216C343.885 970.559 344.765 970.231 345.784 970.231C346.803 970.231 347.659 970.559 348.354 971.216C349.095 971.832 349.465 972.591 349.465 973.494C349.465 974.397 349.095 975.176 348.354 975.833C347.659 976.449 346.803 976.757 345.784 976.757C344.765 976.757 343.885 976.449 343.144 975.833C342.45 975.176 342.103 974.397 342.103 973.494Z" fill="#D7AF5C"/>
<path d="M290.611 975.593H301.035V918.663H290.611V917.498H344.327V931.897H343.294C342.48 929.733 341.604 927.846 340.665 926.237C339.725 924.573 338.599 923.185 337.284 922.076C335.969 920.91 334.404 920.05 332.588 919.496C330.773 918.941 328.581 918.663 326.015 918.663H310.426V945.63H316.53C318.596 945.63 320.349 945.463 321.789 945.13C323.229 944.798 324.449 944.187 325.451 943.299C326.515 942.356 327.392 941.108 328.081 939.554C328.832 937.945 329.552 935.892 330.241 933.395H331.274V959.28H330.241C329.802 957.67 329.333 956.117 328.832 954.619C328.394 953.121 327.736 951.789 326.86 950.624C326.046 949.458 324.919 948.543 323.479 947.877C322.102 947.156 320.286 946.795 318.032 946.795H310.426V975.593H320.85V976.758H290.611V975.593Z" fill="#D7AF5C"/>
<path d="M215.575 947.045C215.575 952.039 215.951 956.394 216.702 960.112C217.453 963.83 218.706 966.937 220.459 969.434C222.212 971.931 224.465 973.789 227.22 975.01C229.975 976.231 233.387 976.841 237.456 976.841C241.463 976.841 244.844 976.231 247.599 975.01C250.416 973.789 252.701 971.931 254.454 969.434C256.207 966.937 257.459 963.83 258.21 960.112C258.962 956.394 259.337 952.039 259.337 947.045C259.337 943.216 259.056 939.526 258.492 935.975C257.929 932.369 256.833 929.178 255.205 926.404C253.64 923.574 251.418 921.327 248.538 919.662C245.72 917.998 242.027 917.165 237.456 917.165C232.886 917.165 229.161 917.998 226.281 919.662C223.464 921.327 221.241 923.574 219.613 926.404C218.048 929.178 216.984 932.369 216.42 935.975C215.857 939.526 215.575 943.216 215.575 947.045ZM204.776 947.045C204.776 942.606 205.746 938.5 207.687 934.727C209.69 930.954 212.226 927.68 215.294 924.906C218.424 922.131 221.93 919.967 225.811 918.414C229.693 916.805 233.575 916 237.456 916C241.588 916 245.595 916.805 249.477 918.414C253.421 919.967 256.927 922.131 259.995 924.906C263.062 927.68 265.504 930.954 267.32 934.727C269.198 938.5 270.137 942.606 270.137 947.045C270.137 950.929 269.292 954.73 267.601 958.447C265.911 962.165 263.595 965.466 260.652 968.352C257.709 971.237 254.235 973.567 250.228 975.343C246.284 977.119 242.027 978.006 237.456 978.006C232.761 978.006 228.41 977.146 224.403 975.426C220.396 973.706 216.921 971.431 213.979 968.601C211.099 965.716 208.845 962.415 207.217 958.697C205.59 954.924 204.776 951.04 204.776 947.045Z" fill="#D7AF5C"/>
<path d="M141.98 944.381H150.62C152.373 944.381 153.969 944.187 155.409 943.799C156.849 943.41 158.07 942.744 159.072 941.801C160.136 940.802 160.95 939.471 161.513 937.806C162.077 936.142 162.358 934.033 162.358 931.481C162.358 928.595 161.92 926.293 161.044 924.573C160.23 922.797 159.134 921.465 157.757 920.577C156.442 919.69 154.94 919.107 153.249 918.83C151.621 918.552 149.994 918.414 148.366 918.414C147.239 918.414 146.081 918.441 144.891 918.497C143.764 918.497 142.794 918.552 141.98 918.663V944.381ZM122.165 975.593H132.589V918.663H122.165V917.498H140.008C140.759 917.498 141.51 917.498 142.262 917.498C143.013 917.442 143.764 917.387 144.516 917.332C145.267 917.332 146.018 917.332 146.769 917.332C147.521 917.276 148.272 917.248 149.023 917.248C152.717 917.248 155.973 917.442 158.79 917.831C161.607 918.164 164.237 919.19 166.678 920.91C168.87 922.409 170.403 924.101 171.28 925.987C172.219 927.874 172.689 929.65 172.689 931.314C172.689 932.146 172.501 933.228 172.125 934.56C171.812 935.836 171.061 937.168 169.871 938.555C168.744 939.887 167.085 941.135 164.894 942.301C162.703 943.41 159.792 944.159 156.16 944.548V944.714C157.162 944.825 158.508 945.047 160.199 945.38C161.952 945.657 163.704 946.157 165.457 946.878C167.273 947.6 168.932 948.571 170.435 949.791C171.937 950.956 173.002 952.482 173.628 954.369C174.003 955.479 174.254 956.755 174.379 958.197C174.567 959.585 174.692 961.027 174.755 962.525C174.88 964.024 174.974 965.466 175.036 966.853C175.162 968.241 175.349 969.406 175.6 970.349C175.975 971.792 176.57 973.096 177.384 974.261C178.198 975.426 179.513 976.009 181.328 976.009C182.142 976.009 182.987 975.87 183.864 975.593C184.74 975.315 185.523 974.871 186.212 974.261L187.057 975.176C186.744 975.398 186.368 975.648 185.93 975.925C185.554 976.147 185.053 976.369 184.427 976.591C183.801 976.813 183.019 976.98 182.08 977.091C181.203 977.257 180.107 977.34 178.793 977.34C176.288 977.34 174.191 977.063 172.501 976.508C170.873 975.953 169.558 975.149 168.557 974.094C167.555 972.985 166.804 971.653 166.303 970.099C165.864 968.49 165.551 966.631 165.364 964.523L164.706 956.949C164.456 954.175 163.83 952.011 162.828 950.457C161.826 948.903 160.637 947.766 159.259 947.045C157.945 946.323 156.567 945.907 155.127 945.796C153.687 945.63 152.435 945.547 151.371 945.547H141.98V975.593H152.404V976.758H122.165V975.593Z" fill="#D7AF5C"/>
<path d="M69.815 946.962C71.0671 947.184 72.3818 947.35 73.7592 947.461C75.1365 947.572 76.3574 947.628 77.4217 947.628C82.0546 947.628 85.6544 946.435 88.2213 944.049C90.8508 941.607 92.1655 937.945 92.1655 933.062C92.1655 930.232 91.8525 927.874 91.2264 925.988C90.6004 924.101 89.5987 922.603 88.2213 921.493C86.9066 920.328 85.1536 919.523 82.9624 919.08C80.8337 918.636 78.2669 918.414 75.2618 918.414C74.0722 918.414 72.9766 918.441 71.9749 918.497C71.0358 918.552 70.3158 918.608 69.815 918.663V946.962ZM50 975.593H60.424V918.663H50V917.498H67.6551C68.5315 917.498 69.408 917.498 70.2845 917.498C71.161 917.443 72.0375 917.387 72.914 917.332C73.7905 917.332 74.6357 917.332 75.4496 917.332C76.3261 917.276 77.2026 917.249 78.079 917.249C81.6476 917.249 84.9345 917.637 87.9396 918.414C91.0073 919.135 93.6368 920.189 95.828 921.576C98.0818 922.964 99.8348 924.628 101.087 926.57C102.339 928.512 102.965 930.676 102.965 933.062C102.965 935.559 102.245 937.779 100.805 939.721C99.3653 941.663 97.4558 943.3 95.0767 944.631C92.6977 945.963 89.9117 946.989 86.7188 947.711C83.5884 948.432 80.3016 948.793 76.8582 948.793C75.9817 948.793 74.8548 948.737 73.4775 948.626C72.1001 948.46 70.8793 948.293 69.815 948.127V975.593H80.239V976.758H50V975.593Z" fill="#D7AF5C"/>
</svg>
