<?xml version="1.0" encoding="utf-8"?>
<!-- Generator: Adobe Illustrator 24.3.0, SVG Export Plug-In . SVG Version: 6.00 Build 0)  -->
<svg version="1.1" id="Ebene_1" xmlns="http://www.w3.org/2000/svg" xmlns:xlink="http://www.w3.org/1999/xlink" x="0px" y="0px"
	 viewBox="0 0 1280.01 799.99" style="enable-background:new 0 0 1280.01 799.99;" xml:space="preserve">
<g>
	<path d="M138.69,190.99c1.93-0.09,3.87-0.25,5.8-0.25c33.24-0.02,66.48,0.05,99.71-0.08c4.18-0.02,7.2,0.9,10.2,3.67
		c56.69,52.23,114.92,103.11,171.92,155.06c51.69,47.11,104.13,93.53,156.01,140.46c10.39,9.41,20.67,18.9,31.03,28.34
		c1.52,1.38,2.74,2.67,2.73,4.88c-0.08,28.43-0.05,56.86-0.05,85.24c-1.99,0.86-2.55-0.69-3.36-1.43
		c-6.96-6.33-13.77-12.79-20.77-19.07c-53.85-48.38-108-96.5-161.55-145.16c-57.36-52.12-115.57-103.49-172.86-155.69
		c-30-27.34-60.5-54.22-90.39-81.65c-6.8-6.24-14.93-9.76-23.94-12.19c-1.47-0.4-2.96-0.78-4.43-1.17c-0.4-0.21-0.54-0.42-0.42-0.63
		C138.43,191.1,138.56,190.99,138.69,190.99"/>
	<path d="M992.2,608.61H768.55c1.14-2.15,2.9-1.48,4.22-1.61c22.21-2.16,40.76-10.57,54.81-26.28
		c10.46-11.72,16.86-25.07,16.88-40.26c0.13-90.04,0.1-180.08,0.11-270.12c0-12.21-0.43-24.45,0.1-36.64
		c0.74-17.04-13.84-34.83-34.14-39.35c-3.04-0.67-6.05-1.21-9.19-1.08c-1.29,0.06-2.29-0.29-2.3-1.7c-0.01-1.48,1.17-1.59,2.37-1.62
		c1.36-0.04,2.72-0.02,4.08-0.02c50.16,0,100.31,0,150.47,0c1.17,0,2.33-0.02,3.5,0.01c1.4,0.02,2.83,0.03,2.63,1.89
		c-0.17,1.47-1.38,1.51-2.54,1.44c-4.57-0.27-8.89,0.83-13.04,2.26c-16.07,5.54-25.89,16-29.59,31.06
		c-0.37,1.51-0.25,3.12-0.25,4.68c-0.01,102.61-0.06,205.21,0.04,307.81c0.02,16.65,6.75,31.31,18.79,43.86
		c13.47,14.03,30.47,22.3,51.17,24.1c0.76,0.07,1.55,0.23,2.24,0.51C989.92,607.95,991.25,607.33,992.2,608.61"/>
	<path d="M230.98,608.95c-30.88,0-61.76,0.04-92.65-0.1c-1.82-0.01-5.56,1.72-5.4-1.66c0.11-2.45,3.64-1.06,5.33-1.09
		c19.01-0.33,36.3-5.35,51.58-15.37c24.36-15.97,37-37.78,38.7-64.77c0.08-1.32-0.7-2.89,0.79-3.88c1.85-1.24,4.32,0.27,4.43,2.76
		c0.49,10.88,2.58,21.46,7.65,31.4c13.64,26.73,36.59,42.95,68.75,48.69c5.74,1.03,11.53,1.05,17.34,1.16
		c0.93,0.02,2.01-0.25,2.23,0.98c0.25,1.4-0.7,1.83-2.02,1.85c-1.55,0.03-3.11,0.02-4.66,0.02
		C292.36,608.95,261.67,608.95,230.98,608.95"/>
	<path d="M616.03,189.94c30.7,0,61.4,0,92.1,0c1.55,0,3.11-0.04,4.66,0.05c0.97,0.05,2.03,0.29,1.87,1.47
		c-0.15,1.15-1.2,1.06-2.18,1.07c-7.95,0.09-15.86,0.57-23.56,2.52c-37.22,9.39-60.05,31.03-68.52,64.89
		c-1.11,4.44-1.18,8.96-1.67,13.46c-0.17,1.6,0.64,3.6-2.57,3.69c-3.2,0.08-2.62-1.82-2.69-3.49c-0.79-18.47-7.02-35.22-20.03-49.66
		c-17.55-19.47-40.31-29.95-68.26-31.17c-2.11-0.09-4.19-0.67-6.35-0.21c-0.64,0.13-1.02-0.42-1.15-0.9
		c-0.19-0.75,0.18-1.47,1.02-1.57c1.54-0.16,3.1-0.13,4.65-0.13C554.24,189.94,585.14,189.94,616.03,189.94"/>
	<path d="M1094.63,189.94c14.77,0,29.54-0.01,44.3,0.01c5.15,0,5.18,0.03,5.19,4.38c0.01,26.16,0.03,52.32-0.05,78.49
		c0,1.36,1.09,3.78-1.17,3.92c-2.5,0.17-1.55-2.3-1.6-3.65c-1.35-36.98-28.92-66.95-64.85-76.79c-9.34-2.55-18.9-3.65-28.61-3.81
		c-1.15-0.02-2.56,0.34-2.5-1.23c0.06-1.47,1.56-1.25,2.65-1.29c1.75-0.06,3.5-0.02,5.25-0.02
		C1067.03,189.94,1080.83,189.94,1094.63,189.94"/>
</g>
</svg>
