<?xml version="1.0" encoding="utf-8"?>
<!-- Generator: Adobe Illustrator 24.3.0, SVG Export Plug-In . SVG Version: 6.00 Build 0)  -->
<svg version="1.1" id="Ebene_1" xmlns="http://www.w3.org/2000/svg" xmlns:xlink="http://www.w3.org/1999/xlink" x="0px" y="0px"
	 viewBox="0 0 1280.01 799.99" style="enable-background:new 0 0 1280.01 799.99;" xml:space="preserve">
<g>
	<g>
		<path d="M74.24,403.06h13.35v-65.81H74.24v-1.35h22.37c1.13,0,2.24-0.02,3.37-0.05c1.12-0.03,2.24-0.08,3.37-0.14
			c1.12,0,2.24-0.02,3.37-0.05c1.12-0.03,2.24-0.05,3.37-0.05c2.4,0,4.54,0.03,6.43,0.1c1.88,0.06,3.65,0.18,5.29,0.33
			c1.65,0.16,3.21,0.39,4.69,0.67c1.48,0.29,3.07,0.66,4.76,1.11c4.89,1.28,9.12,3,12.68,5.15c3.57,2.15,6.5,4.63,8.78,7.46
			c2.28,2.83,3.96,5.91,5.05,9.24c1.08,3.34,1.62,6.83,1.62,10.49c0,4.23-0.64,8.03-1.92,11.4c-1.28,3.36-3.04,6.35-5.29,8.95
			c-2.25,2.6-4.88,4.84-7.88,6.73c-3.01,1.89-6.24,3.42-9.68,4.57c-1.92,0.71-3.75,1.25-5.47,1.64c-1.73,0.38-3.49,0.67-5.29,0.86
			c-1.8,0.2-3.79,0.32-5.95,0.39c-2.16,0.06-4.65,0.09-7.46,0.09c-1.21,0-2.49-0.02-3.85-0.04c-1.36-0.04-2.72-0.08-4.09-0.15
			c-1.37-0.07-2.71-0.11-4.03-0.14c-1.33-0.03-2.59-0.05-3.79-0.05H74.24V403.06z M99.63,403.06c1.36,0.13,2.94,0.22,4.75,0.29
			c1.8,0.07,3.79,0.1,5.95,0.1c2.72,0,5.43-0.11,8.12-0.34c2.69-0.22,5.25-0.7,7.7-1.44s4.73-1.8,6.86-3.18
			c2.12-1.38,4.03-3.19,5.71-5.44c2.57-3.46,4.35-7.01,5.35-10.63c1-3.62,1.51-7.59,1.51-11.88c0-5.07-0.6-9.67-1.81-13.8
			c-1.2-4.14-3.18-7.67-5.95-10.59c-2.77-2.92-6.43-5.18-11-6.78c-4.57-1.6-10.22-2.41-16.96-2.41c-2.01,0-3.83,0.03-5.47,0.1
			c-1.64,0.07-3.23,0.13-4.75,0.19V403.06z"/>
		<path d="M172.26,403.06h13.35v-65.81h-13.35v-1.35h22.85c0.96,0,1.92-0.02,2.89-0.05c0.96-0.03,1.92-0.08,2.89-0.14
			c0.96,0,1.92-0.02,2.89-0.05s1.92-0.05,2.89-0.05c4.73,0,8.9,0.21,12.5,0.62c3.61,0.42,6.97,1.62,10.11,3.61
			c2.81,1.73,4.79,3.69,5.95,5.87c1.16,2.18,1.75,4.23,1.75,6.16c0,0.96-0.23,2.2-0.67,3.71c-0.44,1.5-1.4,3.05-2.88,4.62
			c-1.49,1.57-3.63,3.02-6.44,4.33c-2.81,1.31-6.54,2.2-11.19,2.65v0.19c1.28,0.13,3.03,0.37,5.24,0.72
			c2.2,0.35,4.45,0.95,6.73,1.78c2.29,0.84,4.4,1.94,6.32,3.32c1.92,1.38,3.29,3.16,4.09,5.34c0.48,1.28,0.82,2.74,1.02,4.38
			c0.2,1.64,0.37,3.32,0.48,5.05c0.12,1.73,0.24,3.4,0.37,5c0.11,1.61,0.33,2.95,0.66,4.04c0.48,1.67,1.24,3.18,2.28,4.52
			c1.04,1.35,2.72,2.02,5.05,2.02c1.04,0,2.12-0.16,3.25-0.48s2.13-0.84,3.01-1.54l1.08,1.06c-0.41,0.26-0.86,0.53-1.39,0.82
			c-0.52,0.29-1.18,0.56-1.98,0.82c-0.81,0.25-1.79,0.46-2.95,0.62c-1.16,0.16-2.59,0.24-4.27,0.24c-3.21,0-5.87-0.32-8-0.96
			c-2.12-0.64-3.83-1.59-5.11-2.84c-1.29-1.25-2.23-2.79-2.83-4.62c-0.6-1.83-1.02-3.96-1.26-6.4l-0.84-8.76
			c-0.32-3.21-1.13-5.71-2.41-7.5c-1.28-1.8-2.78-3.11-4.51-3.95c-1.72-0.83-3.51-1.33-5.35-1.49s-3.45-0.24-4.81-0.24h-12.02v34.73
			h13.34v1.35h-38.73V403.06z M197.64,366.98h11.06c2.24,0,4.29-0.22,6.13-0.67s3.43-1.23,4.76-2.36c1.32-1.12,2.34-2.65,3.07-4.57
			c0.72-1.92,1.08-4.36,1.08-7.31c0-3.33-0.54-6.01-1.62-8.03c-1.08-2.02-2.48-3.54-4.21-4.57c-1.72-1.03-3.65-1.7-5.77-2.02
			c-2.13-0.32-4.23-0.48-6.32-0.48c-1.44,0-2.9,0.02-4.39,0.05s-2.75,0.11-3.78,0.24V366.98z"/>
		<path d="M262.38,401.71c0-0.94,0.42-1.74,1.25-2.4c0.82-0.66,1.83-1,3-1c1.18,0,2.18,0.33,3.01,1c0.83,0.66,1.24,1.46,1.24,2.4
			c0,0.94-0.41,1.75-1.24,2.41c-0.83,0.66-1.83,1-3.01,1c-1.17,0-2.18-0.33-3-1C262.8,403.46,262.38,402.66,262.38,401.71z"/>
		<path d="M411.93,403.06h13.34v-65.81h-13.34v-1.35h38.73v1.35H437.3v65.81h13.35v1.35h-38.73V403.06z"/>
		<path d="M461.07,403.06h13.35v-65.81h-13.35v-1.35h22.37c1.13,0,2.24-0.02,3.37-0.05c1.12-0.03,2.24-0.08,3.37-0.14
			c1.12,0,2.24-0.02,3.37-0.05c1.12-0.03,2.24-0.05,3.37-0.05c2.4,0,4.54,0.03,6.43,0.1c1.88,0.06,3.65,0.18,5.29,0.33
			c1.65,0.16,3.21,0.39,4.69,0.67c1.48,0.29,3.07,0.66,4.76,1.11c4.89,1.28,9.12,3,12.68,5.15c3.57,2.15,6.5,4.63,8.78,7.46
			c2.28,2.83,3.96,5.91,5.05,9.24c1.08,3.34,1.62,6.83,1.62,10.49c0,4.23-0.64,8.03-1.92,11.4c-1.28,3.36-3.04,6.35-5.29,8.95
			c-2.25,2.6-4.88,4.84-7.88,6.73c-3.01,1.89-6.24,3.42-9.68,4.57c-1.92,0.71-3.75,1.25-5.47,1.64c-1.73,0.38-3.49,0.67-5.29,0.86
			c-1.8,0.2-3.79,0.32-5.95,0.39c-2.16,0.06-4.65,0.09-7.46,0.09c-1.21,0-2.49-0.02-3.85-0.04c-1.36-0.04-2.72-0.08-4.09-0.15
			c-1.37-0.07-2.71-0.11-4.03-0.14c-1.33-0.03-2.59-0.05-3.79-0.05h-20.45V403.06z M486.45,403.06c1.36,0.13,2.94,0.22,4.75,0.29
			c1.8,0.07,3.79,0.1,5.95,0.1c2.72,0,5.43-0.11,8.12-0.34c2.69-0.22,5.25-0.7,7.7-1.44c2.45-0.74,4.73-1.8,6.86-3.18
			c2.12-1.38,4.03-3.19,5.71-5.44c2.57-3.46,4.35-7.01,5.35-10.63c1-3.62,1.51-7.59,1.51-11.88c0-5.07-0.6-9.67-1.81-13.8
			c-1.2-4.14-3.18-7.67-5.95-10.59c-2.77-2.92-6.43-5.18-11-6.78c-4.57-1.6-10.22-2.41-16.96-2.41c-2.01,0-3.83,0.03-5.47,0.1
			c-1.64,0.07-3.23,0.13-4.75,0.19V403.06z"/>
		<path d="M548.75,403.06h10.59l32.47-68.89h2.89l32.72,68.89h10.7v1.35h-37.04v-1.35h13.34l-12.63-26.75h-27.9l-12.63,26.75h13.35
			v1.35h-25.86V403.06z M587.84,346.97l-13.23,28h26.46L587.84,346.97z"/>
		<path d="M641.59,403.06h13.35v-65.81h-13.35v-1.35h38.73v1.35h-13.34v65.81h21.4c7.06,0,12.59-1.77,16.6-5.29
			c4.01-3.53,6.93-8.34,8.78-14.43h1.32v21.07h-73.49V403.06z"/>
		<path d="M833.8,370.06c0-5.13,1.26-9.88,3.78-14.24c2.53-4.36,5.77-8.15,9.75-11.35c3.96-3.21,8.43-5.73,13.41-7.55
			c4.97-1.83,9.94-2.74,14.91-2.74c5.29,0,10.45,0.91,15.46,2.74c5.01,1.83,9.48,4.34,13.41,7.55c3.93,3.21,7.08,6.99,9.45,11.35
			c2.36,4.36,3.55,9.11,3.55,14.24c0,4.49-1.08,8.89-3.25,13.18c-2.17,4.29-5.14,8.11-8.91,11.45c-3.77,3.34-8.2,6.03-13.29,8.08
			c-5.09,2.05-10.56,3.08-16.42,3.08c-6.01,0-11.58-1-16.71-2.98c-5.14-1.99-9.57-4.64-13.3-7.94c-3.73-3.3-6.63-7.12-8.72-11.45
			C834.84,379.15,833.8,374.68,833.8,370.06z M847.63,370.06c0,5.77,0.48,10.81,1.44,15.11c0.96,4.3,2.57,7.89,4.81,10.78
			c2.24,2.89,5.13,5.04,8.66,6.45c3.52,1.41,7.9,2.12,13.11,2.12c5.13,0,9.49-0.71,13.05-2.12s6.48-3.56,8.72-6.45
			c2.24-2.89,3.85-6.48,4.81-10.78c0.96-4.29,1.44-9.33,1.44-15.11c0-4.42-0.36-8.71-1.08-12.84c-0.72-4.14-2.1-7.83-4.15-11.07
			c-2.04-3.24-4.89-5.82-8.53-7.74c-3.65-1.92-8.4-2.89-14.26-2.89c-5.86,0-10.6,0.96-14.25,2.89c-3.65,1.92-6.49,4.51-8.54,7.74
			c-2.05,3.24-3.43,6.93-4.15,11.07C848,361.35,847.63,365.63,847.63,370.06z"/>
		<path d="M927.24,403.06h13.35v-65.81h-13.35v-1.35h27.06l22.25,51.77h0.24l22.25-51.77h26.57v1.35h-13.34v65.81h13.34v1.35H986.9
			v-1.35h13.35v-65.24H1000l-28.74,66.68l-28.62-66.01h-0.24v64.56h13.35v1.35h-28.51V403.06z"/>
		<path d="M1028.63,403.06h10.59l32.47-68.89h2.89l32.72,68.89h10.7v1.35h-37.04v-1.35h13.34l-12.63-26.75h-27.9l-12.63,26.75h13.35
			v1.35h-25.86V403.06z M1067.73,346.97l-13.23,28h26.46L1067.73,346.97z"/>
		<path d="M1120.4,403.06h13.34v-65.81h-13.34v-1.35h25.73l40.65,52.44h0.24v-51.09h-13.35v-1.35h28.51v1.35h-13.35v68.51h-2.41
			l-50.64-64.56h-0.24v61.87h13.34v1.35h-28.5V403.06z"/>
	</g>
	<g>
		<path d="M309.26,336.6c0.31-0.01,0.62-0.04,0.93-0.04c5.32,0,10.65,0.01,15.97-0.01c0.67,0,1.15,0.14,1.63,0.59
			c9.08,8.36,18.4,16.51,27.53,24.83c8.28,7.54,16.68,14.98,24.98,22.5c1.66,1.51,3.31,3.03,4.97,4.54
			c0.24,0.22,0.44,0.43,0.44,0.78c-0.01,4.55-0.01,9.11-0.01,13.65c-0.32,0.14-0.41-0.11-0.54-0.23c-1.11-1.01-2.2-2.05-3.33-3.05
			c-8.62-7.75-17.3-15.46-25.87-23.25c-9.19-8.35-18.51-16.57-27.68-24.93c-4.8-4.38-9.69-8.68-14.48-13.08
			c-1.09-1-2.39-1.56-3.83-1.95c-0.24-0.06-0.47-0.13-0.71-0.19c-0.06-0.03-0.09-0.07-0.07-0.1
			C309.22,336.62,309.24,336.6,309.26,336.6"/>
		<path d="M324.04,403.54c-4.95,0-9.89,0.01-14.84-0.02c-0.29,0-0.89,0.28-0.87-0.27c0.02-0.39,0.58-0.17,0.85-0.17
			c3.04-0.05,5.81-0.86,8.26-2.46c3.9-2.56,5.93-6.05,6.2-10.37c0.01-0.21-0.11-0.46,0.13-0.62c0.3-0.2,0.69,0.04,0.71,0.44
			c0.08,1.74,0.41,3.44,1.22,5.03c2.19,4.28,5.86,6.88,11.01,7.8c0.92,0.17,1.85,0.17,2.78,0.19c0.15,0,0.32-0.04,0.36,0.16
			c0.04,0.22-0.11,0.29-0.32,0.3c-0.25,0.01-0.5,0-0.75,0C333.87,403.54,328.95,403.54,324.04,403.54"/>
		<path d="M385.71,336.43c4.92,0,9.83,0,14.75,0c0.25,0,0.5-0.01,0.75,0.01c0.16,0.01,0.33,0.05,0.3,0.23
			c-0.02,0.18-0.19,0.17-0.35,0.17c-1.27,0.01-2.54,0.09-3.77,0.4c-5.96,1.5-9.62,4.97-10.97,10.39c-0.18,0.71-0.19,1.44-0.27,2.16
			c-0.03,0.26,0.1,0.58-0.41,0.59c-0.51,0.01-0.42-0.29-0.43-0.56c-0.13-2.96-1.12-5.64-3.21-7.95c-2.81-3.12-6.46-4.8-10.93-4.99
			c-0.34-0.01-0.67-0.11-1.02-0.03c-0.1,0.02-0.16-0.07-0.18-0.14c-0.03-0.12,0.03-0.24,0.16-0.25c0.25-0.03,0.5-0.02,0.75-0.02
			C375.81,336.43,380.76,336.43,385.71,336.43"/>
	</g>
	<path d="M801.32,405.32h-38.01c0.19-0.37,0.49-0.25,0.72-0.27c3.77-0.37,6.93-1.8,9.31-4.47c1.78-1.99,2.86-4.26,2.87-6.84
		c0.02-15.3,0.02-30.6,0.02-45.9c0-2.08-0.07-4.15,0.02-6.23c0.13-2.9-2.35-5.92-5.8-6.69c-0.52-0.11-1.03-0.21-1.56-0.18
		c-0.22,0.01-0.39-0.05-0.39-0.29c0-0.25,0.2-0.27,0.4-0.28c0.23-0.01,0.46,0,0.69,0c8.52,0,17.05,0,25.57,0c0.2,0,0.4,0,0.59,0
		c0.24,0,0.48,0.01,0.45,0.32c-0.03,0.25-0.23,0.26-0.43,0.25c-0.78-0.05-1.51,0.14-2.22,0.38c-2.73,0.94-4.4,2.72-5.03,5.28
		c-0.06,0.26-0.04,0.53-0.04,0.8c0,17.44-0.01,34.87,0.01,52.31c0,2.83,1.15,5.32,3.19,7.45c2.29,2.38,5.18,3.79,8.69,4.09
		c0.13,0.01,0.26,0.04,0.38,0.09C800.93,405.21,801.15,405.1,801.32,405.32"/>
	<path d="M818.72,334.17c2.51,0,5.02,0,7.53,0c0.87,0,0.88,0.01,0.88,0.74c0,4.45,0,8.89-0.01,13.34c0,0.23,0.18,0.64-0.2,0.67
		c-0.42,0.03-0.26-0.39-0.27-0.62c-0.23-6.28-4.91-11.38-11.02-13.05c-1.59-0.43-3.21-0.62-4.86-0.65c-0.2,0-0.44,0.06-0.42-0.21
		c0.01-0.25,0.27-0.21,0.45-0.22c0.3-0.01,0.59,0,0.89,0C814.03,334.17,816.38,334.17,818.72,334.17"/>
	<path d="M745.9,334.17c-2.51,0-5.02,0-7.53,0c-0.87,0-0.88,0.01-0.88,0.74c0,4.45,0,8.89,0.01,13.34c0,0.23-0.18,0.64,0.2,0.67
		c0.42,0.03,0.26-0.39,0.27-0.62c0.23-6.28,4.91-11.38,11.02-13.05c1.59-0.43,3.21-0.62,4.86-0.65c0.2,0,0.44,0.06,0.42-0.21
		c-0.01-0.25-0.27-0.21-0.45-0.22c-0.3-0.01-0.59,0-0.89,0C750.59,334.17,748.25,334.17,745.9,334.17"/>
</g>
</svg>
