<svg width="40" height="42" viewBox="0 0 40 42" fill="none" xmlns="http://www.w3.org/2000/svg">
<path d="M13.457 0C15.5474 3.44045 16.9627 7.03333 17.7031 10.7786C18.4434 14.4804 18.5088 18.1604 17.8991 21.8186C17.2894 25.4332 16.0046 28.9172 14.0449 32.2706C12.1287 35.5804 9.53745 38.5636 6.2712 41.2201L1.17585 38.1498C0.740348 37.8885 0.435495 37.5837 0.261295 37.2353C0.0870949 36.8433 0 36.4732 0 36.1248C0.0435498 35.7328 0.130645 35.3626 0.261295 35.0142C0.435495 34.6658 0.653247 34.361 0.914547 34.0997C1.8291 33.0109 2.7001 31.5738 3.52755 29.7882C4.355 28.0027 4.92115 25.9994 5.226 23.7783C5.5744 21.5573 5.53085 19.1838 5.09535 16.6579C4.7034 14.132 3.72353 11.6061 2.15573 9.08018C1.41538 7.81723 1.19762 6.72848 1.50247 5.81393C1.85087 4.85583 2.56945 4.18081 3.6582 3.78886L13.457 0ZM35.1449 0C37.2353 3.44045 38.6506 7.03333 39.391 10.7786C40.1314 14.4804 40.1967 18.1604 39.587 21.8186C38.9773 25.4332 37.6926 28.9172 35.7328 32.2706C33.8166 35.5804 31.2254 38.5636 27.9591 41.2201L22.8638 38.1498C22.4283 37.8885 22.1234 37.5837 21.9492 37.2353C21.775 36.8433 21.6879 36.4732 21.6879 36.1248C21.7315 35.7328 21.8186 35.3626 21.9492 35.0142C22.1234 34.6658 22.3412 34.361 22.6025 34.0997C23.517 33.0109 24.388 31.5738 25.2155 29.7882C26.0429 28.0027 26.6091 25.9994 26.9139 23.7783C27.2623 21.5573 27.2188 19.1838 26.7833 16.6579C26.3913 14.132 25.4114 11.6061 23.8436 9.08018C23.1033 7.81723 22.8855 6.72848 23.1904 5.81393C23.5388 4.85583 24.2574 4.18081 25.3461 3.78886L35.1449 0Z" fill="#18110C" fill-opacity="0.2"/>
</svg>
