<svg width="40" height="43" viewBox="0 0 40 43" fill="none" xmlns="http://www.w3.org/2000/svg">
<path d="M4.86162 42.6511C2.76842 39.0912 1.35115 35.3736 0.609813 31.4983C-0.131527 27.623 -0.196941 23.8152 0.413575 20.0751C1.02409 16.335 2.28873 12.7525 4.2075 9.32782C6.16987 5.85805 8.78637 2.74878 12.057 0L17.0937 3.17686C17.9659 3.76267 18.3584 4.48366 18.2712 5.33984C18.184 6.19602 17.9005 6.87195 17.4208 7.36762C16.505 8.49417 15.6329 9.98121 14.8043 11.8288C13.9758 13.6763 13.387 15.7491 13.0382 18.0473C12.7329 20.3455 12.7765 22.8013 13.169 25.4149C13.5615 28.0285 14.5427 30.6421 16.1126 33.2557C16.8975 34.5625 17.1156 35.7116 16.7667 36.7029C16.4178 37.6492 15.6983 38.3252 14.6081 38.7307L4.86162 42.6511ZM26.5786 42.6511C24.4854 39.0912 23.0681 35.3736 22.3267 31.4983C21.5854 27.623 21.52 23.8152 22.1305 20.0751C22.741 16.335 24.0057 12.7525 25.9244 9.32782C27.8868 5.85805 30.5033 2.74878 33.7739 0L38.8107 3.17686C39.6828 3.76267 40.0753 4.48366 39.9881 5.33984C39.9009 6.19602 39.6174 6.87195 39.1377 7.36762C38.222 8.49417 37.3498 9.98121 36.5212 11.8288C35.6927 13.6763 35.104 15.7491 34.7551 18.0473C34.4499 20.3455 34.4935 22.8013 34.8859 25.4149C35.2784 28.0285 36.2596 30.6421 37.8295 33.2557C38.6144 34.5625 38.8325 35.7116 38.4836 36.7029C38.1348 37.6492 37.4152 38.3252 36.325 38.7307L26.5786 42.6511Z" fill="#18110C" fill-opacity="0.2"/>
</svg>
