<svg width="14" height="14" viewBox="0 0 14 14" fill="none" xmlns="http://www.w3.org/2000/svg">
<g id="place_24px">
<path id="icon/maps/place_24px" fill-rule="evenodd" clip-rule="evenodd" d="M9.08333 2C6.82583 2 5 3.82583 5 6.08333C5 9.14583 9.08333 13.6667 9.08333 13.6667C9.08333 13.6667 13.1667 9.14583 13.1667 6.08333C13.1667 3.82583 11.3408 2 9.08333 2ZM6.16667 6.08333C6.16667 4.47333 7.47333 3.16667 9.08333 3.16667C10.6933 3.16667 12 4.47333 12 6.08333C12 7.76333 10.32 10.2775 9.08333 11.8467C7.87 10.2892 6.16667 7.74583 6.16667 6.08333ZM7.625 6.08333C7.625 5.27792 8.27792 4.625 9.08333 4.625C9.60435 4.625 10.0858 4.90296 10.3463 5.35417C10.6068 5.80538 10.6068 6.36129 10.3463 6.8125C10.0858 7.26371 9.60435 7.54167 9.08333 7.54167C8.27792 7.54167 7.625 6.88875 7.625 6.08333Z" fill="white"/>
</g>
</svg>
